# xmcd
#
# Track frame offsets: 
#        150
#        14945
#        32520
#        49787
#        64487
#        82102
#        96880
#        111052
#        126607
#        142790
#        159012
#        175627
#        192567
#
# Disc length: 2796 seconds
#
# Revision: 2
# Processed by: cddbd v1.4PL0 Copyright (c) Steve Scherf et al.
# Submitted via: ExactAudioCopy v0.95a3
#
DISCID=b30aea0d
DTITLE=Hi-5 - Ξέρω Τι Ζητάω
DYEAR=2003
DGENRE=Ethnic
TTITLE0=Το Τυχερό Αστέρι
TTITLE1=Και Σε Θέλω
TTITLE2=Ψάξε
TTITLE3=All The Woman You Need
TTITLE4=Ξέρω Τι Ζητάω
TTITLE5=Φτάνει Πιά
TTITLE6=Πρώτη Φορά
TTITLE7=Πες Μου Πώς
TTITLE8=Άλλο Αγάπη Και Άλλο Sex
TTITLE9=Όλα Μπορούν Να Αλλάξουνε
TTITLE10=Μ'Ένα Φιλί
TTITLE11=Λάθος Ή Σωστό
TTITLE12=I Was Made For Lovin' You
EXTD=YEAR: 2003
EXTT0=
EXTT1=
EXTT2=
EXTT3=
EXTT4=
EXTT5=
EXTT6=
EXTT7=
EXTT8=
EXTT9=
EXTT10=
EXTT11=
EXTT12=
PLAYORDER=
